<?xml version="1.0" ?><!-- Created with Inkscape (http://www.inkscape.org/) --><!DOCTYPE svg  PUBLIC '-//W3C//DTD SVG 1.1//EN'  'http://www.w3.org/Graphics/SVG/1.1/DTD/svg11.dtd' [
	<!ENTITY stroke_color "#000000">
	<!ENTITY fill_color "#f9f9f9">
]><svg height="55px" id="svg2" version="1.0" width="55px" xmlns="http://www.w3.org/2000/svg" xmlns:svg="http://www.w3.org/2000/svg">
  <defs id="defs25"/>
  <g id="g3189" transform="translate(0.5460284,-5.8698053)">
    <g id="g3179" style="fill:&fill_color;">
      <path d="M -15.250965,21.476833 A 5.888031,6.0328183 0 1 1 -27.027027,21.476833 A 5.888031,6.0328183 0 1 1 -15.250965,21.476833 z" id="path3198" style="fill:&fill_color;;fill-opacity:1;fill-rule:nonzero;stroke:&stroke_color;;stroke-width:1.441733;stroke-miterlimit:4;stroke-dasharray:none;stroke-dashoffset:0;stroke-opacity:1" transform="matrix(1.6524354,0,0,1.693284,46.586408,-1.2779309)"/>
      <g id="g3209" style="fill:&fill_color;" transform="matrix(1.6524354,0,0,1.693284,1.2427726,-22.145849)">
        <path d="M 2.5247442,34.794776 C 2.438505,36.536722 4.6301742,37.607276 6.3684942,37.607276 C 8.1068142,37.607276 10.329733,36.669444 10.243494,34.794776 C 7.4999435,35.92096 5.1659144,35.92096 2.5247442,34.794776 z" id="path3200" style="fill:&fill_color;;fill-opacity:1;fill-rule:nonzero;stroke:&stroke_color;;stroke-width:1;stroke-miterlimit:4;stroke-dasharray:none;stroke-dashoffset:0;stroke-opacity:1"/>
      </g>
      <path d="M -2.0752897,34.700771 A 0.67567569,0.67567569 0 1 1 -3.426641,34.700771 A 0.67567569,0.67567569 0 1 1 -2.0752897,34.700771 z" id="path3212" style="fill:&fill_color;;fill-opacity:1;fill-rule:nonzero;stroke:&stroke_color;;stroke-width:1;stroke-miterlimit:4;stroke-dasharray:none;stroke-dashoffset:0;stroke-opacity:1" transform="matrix(1.6524354,0,0,1.693284,12.509848,-27.294347)"/>
      <path d="M -2.0752897,34.700771 A 0.67567569,0.67567569 0 1 1 -3.426641,34.700771 A 0.67567569,0.67567569 0 1 1 -2.0752897,34.700771 z" id="path3214" style="fill:&fill_color;;fill-opacity:1;fill-rule:nonzero;stroke:&stroke_color;;stroke-width:1;stroke-miterlimit:4;stroke-dasharray:none;stroke-dashoffset:0;stroke-opacity:1" transform="matrix(1.6524354,0,0,1.693284,20.165919,-27.294347)"/>
    </g>
    <path d="M 35.708931,11.484022 C 28.888814,11.484022 23.350658,16.626052 23.350658,22.981892 C 23.350658,26.988478 25.553986,30.500761 28.888415,32.563452 C 28.84466,32.650984 28.808264,32.745376 28.763269,32.832407 C 28.324605,33.680874 27.93149,34.467803 27.324078,35.185772 C 27.020372,35.544758 26.744852,35.864015 26.479334,36.261597 C 25.670426,37.472843 23.658442,38.761459 23.350658,39.48907 C 23.202882,39.838417 23.943954,39.545516 24.664701,39.287352 C 25.857301,38.860179 27.057386,38.185307 28.074959,37.37104 C 29.198513,36.471969 30.287075,35.435352 31.078489,34.143568 C 31.160454,34.009782 31.268425,33.902523 31.36007,33.773753 C 32.709832,34.245906 34.182888,34.513383 35.708931,34.513383 C 42.529048,34.513383 48.067203,29.337731 48.067205,22.981892 C 48.067205,16.626053 42.529051,11.484022 35.708931,11.484022 z" id="path3231" style="fill:&fill_color;;fill-opacity:1;fill-rule:nonzero;stroke:&stroke_color;;stroke-width:2.36441755;stroke-miterlimit:4;stroke-dasharray:none;stroke-dashoffset:0;stroke-opacity:1"/>
    <text id="text3240" style="font-size:11.99999523px;font-style:normal;font-variant:normal;font-weight:bold;font-stretch:normal;text-align:start;line-height:125%;writing-mode:lr-tb;text-anchor:start;fill:&stroke_color;;fill-opacity:1;stroke:none;stroke-width:1px;stroke-linecap:butt;stroke-linejoin:miter;stroke-opacity:1;font-family:Bitstream Vera Sans;-inkscape-font-specification:Bitstream Vera Sans Bold" transform="scale(0.97282,1.0279393)" x="31.066299" xml:space="preserve" y="26.301521"><tspan id="tspan3242" x="31.066299" y="26.301521">!!</tspan></text>
  </g>
</svg>
